<svg xmlns="http://www.w3.org/2000/svg" xmlns:ev="http://www.w3.org/2001/xml-events" xmlns:xlink="http://www.w3.org/1999/xlink" baseProfile="full" height="781px" version="1.1" viewBox="0 0 2433 781" width="2433px"><defs/><g id="layer_Profile" stroke-width="1" stroke="#000000"><g fill="none" id="element_Profile_2" stroke="#000000" stroke-width="1.5"><path d="M 75.00,71.00 C 91.30,73.90 118.85,87.65 121.00,89.00 S 131.10,98.65 132.00,100.00 S 138.40,113.80 139.00,116.00 S 143.85,138.75 144.00,144.00 S 141.90,214.65 142.00,221.00 S 145.75,265.85 146.00,271.00 S 146.55,318.00 147.00,324.00 S 154.15,385.30 155.00,391.00 S 162.80,433.00 164.00,438.00 S 177.65,486.95 179.00,491.00 S 189.70,516.55 191.00,519.00 S 202.95,537.40 205.00,540.00 S 230.65,569.10 232.00,571.00 S 232.45,576.25 232.00,578.00 S 224.05,603.30 223.00,606.00 S 212.00,630.30 211.00,632.00 S 203.60,639.55 203.00,640.00 S 199.95,641.45 199.00,641.00 S 187.35,634.05 184.00,631.00 S 135.40,583.55 132.00,580.00 S 117.30,561.90 116.00,560.00 S 106.40,545.25 106.00,542.00 S 108.10,499.35 108.00,495.00 S 104.45,458.00 104.00,455.00 S 99.25,438.30 99.00,435.00 S 99.15,393.10 99.00,389.00 S 96.80,357.25 96.00,353.00 S 83.45,308.10 83.00,304.00 S 86.85,273.80 87.00,271.00 S 86.30,250.40 86.00,248.00 S 81.85,226.00 81.00,223.00 S 69.55,190.95 69.00,188.00 S 70.05,166.05 70.00,164.00 S 68.90,150.40 68.00,147.00 S 52.75,99.10 52.00,96.00 S 52.40,86.05 53.00,85.00 S 62.95,75.65 64.00,75.00 L 74.00,72.00 Z" id="Profile_2_path_0" stroke-width="1" stroke="#000000"/></g></g></svg>